<?xml version="1.0" encoding="utf-8"?>
<!-- Generator: Adobe Illustrator 26.0.1, SVG Export Plug-In . SVG Version: 6.00 Build 0)  -->
<svg version="1.1" id="Layer_1" xmlns="http://www.w3.org/2000/svg" xmlns:xlink="http://www.w3.org/1999/xlink" x="0px" y="0px"
	 viewBox="0 0 255.1 283.5" style="enable-background:new 0 0 255.1 283.5;" xml:space="preserve">
<style type="text/css">
	.st0{fill:#B51218;}
</style>
<path class="st0" d="M171.1,17.6c0.9,5.4-6.4,29.1-9.6,43c-2.1,9.1-4.5,18.1-6.8,27.1c-0.3,1.3-1.1,4.2-1.5,6.5
	c-0.3,2.3-0.6,5.8,1.5,6.9c2,1,4.6-1.3,5.9-2.8c6.4-7,13.1-17,19.3-24.1c11.8-13.3,23.4-26.8,35.6-39.6c2.9-3,6.6-5.3,10.9-5.8
	c8-1,13.8,8.1,10.6,15.6c-3.2,7.2-6.7,12.3-11.5,18.5c-12.3,15.9-25.4,31.2-38.1,46.8c-1.7,2.1-3.2,4.2-4.6,6.5
	c-0.5,0.9-1.3,2.3-0.6,3.2c0.7,1,2.4,0.6,3.6,0.5c3.1-0.3,6.2-1.2,9.3-1.1c8.5,0.3,13.7,6.8,12.4,15.2c-0.2,1.2-0.4,2.3-0.7,3.4
	c-1.4,5.9-0.7,6.7,5,6.7c12.5,0,17.4,10.7,10.9,21.3C208.5,189,191.2,210,170,227.8c-4.1,3.4-8.6,6.4-12.1,10.4
	c-4.6,5.1-8.9,10.7-12.4,16.6c-4.4,7.2-2.7,4.4-6.4,12c-3.3,6.8-7.5,9.4-17.2,7.3c-9.2-2-13.2-4.2-22.3-8c-5-2-14-6.4-18.7-9.2
	c-4.9-2.9-10-5.5-14.8-8.7c-6-4-7.9-11.9-4.8-18.4c3-6.3,0.9-1.9,3.8-8.2c3.7-7.9,3.9-16.3,1.4-24.4c-5-16.1-11.4-31.6-20.9-45.6
	c-8.6-12.7-17.8-25.1-26.2-37.9c-3.8-5.8-2.7-12.5,1.6-16.5c4.2-3.9,10.5-4.3,15.5-0.3c10.5,8.4,20.7,17.2,31.1,25.7
	c3.3,2.7,6.6,5.5,10.2,8c6,4.3,10.9,3.7,15.8-1.7c11.7-13.1,19.5-28.5,26.4-44.4c9.3-21.5,17.8-43.3,27.1-64.9
	c1.6-3.8,4.7-7.5,8.1-9.7c2.6-1.6,7.4-1.6,10.1-0.3C168,11,170.5,13.9,171.1,17.6z"/>
</svg>
