<?xml version="1.0" encoding="utf-8"?>
<!-- Generator: Adobe Illustrator 26.0.1, SVG Export Plug-In . SVG Version: 6.00 Build 0)  -->
<svg version="1.1" id="Layer_1" xmlns="http://www.w3.org/2000/svg" xmlns:xlink="http://www.w3.org/1999/xlink" x="0px" y="0px"
	 viewBox="0 0 184.3 141.7" style="enable-background:new 0 0 184.3 141.7;" xml:space="preserve" width="65mm" height="50mm">
<style type="text/css">
	.st0{fill:#020202;}
	.st1{fill-rule:evenodd;clip-rule:evenodd;fill:#1A1A1A;}
	.st2{fill-rule:evenodd;clip-rule:evenodd;fill:#E31E24;}
</style>
<path class="st0" d="M166.4,12l-0.1,0l-0.1,0C142,5.7,117.1,2.4,92.1,2.4c-25,0-49.8,3.3-74.1,9.5l-0.1,0l-0.1,0
	C3.5,16.2-1.5,26.8,6.3,39.9L6.3,40l55,86.7c5.9,10.7,18.8,13.3,30.8,13.3c12.7,0,24.8-2.6,30.8-13.3l55-86.7l0.1-0.1
	C185.8,26.8,180.7,16.2,166.4,12z M172.2,36.5l-55.1,86.8c-4.3,7.9-13.9,10-25,10c-11.2,0-20.7-2.1-25-10L12,36.5
	c-5.6-9.4-2.3-15.2,7.7-18.1c24-6.2,48.2-9.3,72.4-9.3c24.2-0.1,48.4,3.1,72.4,9.3C174.5,21.3,177.8,27.1,172.2,36.5z"/>
<path class="st1" d="M110.8,40.1h7.9v9.8h-1V56l3.9-6.2h-0.9v-9.8h7.5v9.8h-2.1l-3.9,5.8l4.6,11.9h2.1l0,10.6h-8.2V67.5h1l-2.8-7.1
	l-1.3,2v4.8l-6.4-23.2C110.9,42.6,110.8,41.3,110.8,40.1z M117.8,67.5h1.5V78h-0.1c0.2-2.9-0.1-5.8-0.9-8.7L117.8,67.5z"/>
<polygon class="st1" points="81.8,40.1 72.7,40.1 69.7,59.1 67.1,40.1 57.6,40.1 57.6,49.8 59.7,49.8 59.7,67.5 57.6,67.5 57.6,78
	65.3,78 65.3,67.5 63.9,67.5 63.9,47.6 68.2,78 70.3,78 75,46.8 75,67.5 73.5,67.5 73.5,78 81.8,78 81.8,67.5 79.9,67.5 79.9,49.8
	81.8,49.8 "/>
<path class="st1" d="M101.2,78h-8.6V67.5h1.4l-0.6-4.6h-4l-0.7,4.6h2V78h-7.5V67.5H85l3.8-27.4h4.3c-0.6,3-0.6,6.1,0.3,9.1l7.3,26.2
	C100.9,76.2,101.1,77.1,101.2,78z M93,58.5l-1.4-10.9l-1.5,10.9H93z"/>
<path class="st2" d="M90.9,102.4c12.5-4.7,19.4-18.2,15.8-31.1l-7-25.4c-2.3-8.2,3.9-14,9.8-20.2c3.7-3.9-10.2,3.5-13.1,8
	c-3,4.5-3.9,10-2.5,15.2l7.3,26.2C104,85.6,99.9,96.6,90.9,102.4z"/>
<path class="st2" d="M102,100.5c12.5-4.7,19.4-18.2,15.8-31.1l-7-25.3c-2.3-8.2,3.9-14,9.8-20.2c3.7-3.9-10.2,3.5-13.2,8
	c-3,4.5-3.9,10-2.5,15.2l7.3,26.2C115.1,83.6,111,94.6,102,100.5z"/>
</svg>
